# xmcd
#
# Track frame offsets:
#	150
#	18441
#	37375
#	53666
#	70953
#	87029
#	106268
#	124248
#	140213
#	158728
#	177112
#	187758
#	209183
#	225910
#	244229
#	263209
#	279425
#	309278
#
# Disc length: 4321 seconds
# Revision: 0
# Processed by: cddbd v1.5.2PL0 Copyright (c) Steve Scherf et al.
# Submitted via: dBpowerAMP V12.0
#
DISCID=fc10df12
DTITLE=I Killed the Prom Queen - Music for the Recently Deceased
DYEAR=2008
DGENRE=Hardcore
TTITLE0=Sharks in Your Mouth
TTITLE1=Say Goodbye
TTITLE2=€666
TTITLE3=Your Shirt Would Look Better with a Columbian Neck-Tie
TTITLE4=The Deepest Sleep
TTITLE5=Bet It All on Black
TTITLE6=Headfirst from a Hangman's Noose
TTITLE7=Sleepless Nights and City Lights
TTITLE8=Slain Upon My Faithful Sword
TTITLE9=Like Nails to a Casket
TTITLE10=There Will Be No Violins When You Die
TTITLE11=Sharks in Your Mouth (Live)
TTITLE12=Your Shirt Would Look Better with a Columbian Neck-Tie (Live)
TTITLE13=Sharks in Your Mouth (feat. Michael Crafter)
TTITLE14=Say Goodbye (feat. Michael Crafter)
TTITLE15=€666 (feat. Michael Crafter)
TTITLE16=Like Nails to a Casket (feat. Michael Crafter)
TTITLE17=DATA
EXTD=
EXTT0=
EXTT1=
EXTT2=
EXTT3=
EXTT4=
EXTT5=
EXTT6=
EXTT7=
EXTT8=
EXTT9=
EXTT10=
EXTT11=
EXTT12=
EXTT13=
EXTT14=
EXTT15=
EXTT16=
EXTT17=
PLAYORDER=
